<?xml version="1.0" ?><svg id="Layer_1" style="enable-background:new 0 0 512 512;" version="1.1" viewBox="0 0 512 512" xml:space="preserve" xmlns="http://www.w3.org/2000/svg" xmlns:xlink="http://www.w3.org/1999/xlink"><g><rect height="11.8" width="91.8" x="343.4" y="296.2"/><path d="M474.8,393.8c-1.4-2.9-4.4-4.8-7.7-4.8h-31.9v-69.2h-91.8V389h-31.9c-3.3,0-6.3,1.9-7.7,4.8c-1.4,2.9-1.1,6.4,0.9,9   l27,34.6H90.1c-20.1,0-36.5-16.4-36.5-36.5V221.1h148.3c36.6,0,66.3-31.1,66.3-69.4c0-38.3-29.8-69.4-66.3-69.4H53.6V59.7   c0-20.1,16.4-36.5,36.5-36.5h254.2c20.1,0,36.5,16.4,36.5,36.5V258H352c-4.7,0-8.6,3.8-8.6,8.6v17.9h91.8v-17.9   c0-4.7-3.8-8.6-8.6-8.6H398V59.7C398,30.1,373.9,6,344.2,6H90.1C60.4,6,36.3,30.1,36.3,59.7V91v121.5v188.4   c0,29.6,24.1,53.7,53.7,53.7h254.2c0.3,0,0.6,0,1,0l37.4,48c1.6,2.1,4.1,3.3,6.8,3.3s5.1-1.2,6.8-3.3l77.8-99.9   C475.9,400.2,476.2,396.7,474.8,393.8z M201.9,99.6c27.1,0,49.1,23.4,49.1,52.1c0,28.7-22,52.1-49.1,52.1H53.6V99.6H201.9z"/><path d="M79.2,175.5c3.1,2.7,7.3,4,12.5,4c5,0,9-1.5,12.1-4.6c3.1-3,4.7-7.1,4.7-12.3v-37.4h-8.9v37.4c0,2.9-0.7,5.3-2.2,7   c-1.5,1.8-3.4,2.6-5.7,2.6c-2.6,0-4.6-0.7-6.1-2.2c-1.5-1.5-2.2-3.7-2.2-6.7h-8.6l-0.1,0.2C74.7,168.8,76.1,172.8,79.2,175.5z"/><path d="M130.9,158.5h11.6c5.9,0,10.5-1.5,13.9-4.5c3.3-3,5-7,5-12.1c0-5-1.7-9-5-12c-3.3-3-8-4.6-13.9-4.6H122v53.5h8.9V158.5z    M130.9,132.4h11.6c3.3,0,5.8,0.9,7.5,2.7c1.7,1.8,2.5,4.1,2.5,6.8s-0.8,5-2.5,6.7c-1.7,1.8-4.1,2.6-7.5,2.6h-11.6V132.4z"/><path d="M192.2,179.5c5.1,0,9.2-0.8,12.5-2.4c3.2-1.6,5.6-3.5,7-5.6v-20.2h-20.1v6.7h11.2V169c-0.9,0.9-2.1,1.7-3.8,2.4   c-1.7,0.6-3.9,1-6.8,1c-3.8,0-6.9-1.4-9.2-4.2c-2.4-2.8-3.5-6.3-3.5-10.6v-11.2c0-4.3,1.1-7.8,3.4-10.5c2.3-2.8,5.2-4.1,8.9-4.1   c3.5,0,6.2,0.9,8.1,2.8c1.9,1.8,2.8,4.3,2.8,7.3h8.5l0.1-0.2c0.1-5-1.6-9.1-5.1-12.3c-3.5-3.1-8.3-4.7-14.5-4.7   c-6.2,0-11.3,2-15.2,6.1c-3.9,4.1-5.9,9.3-5.9,15.8v11.2c0,6.5,2,11.7,6.1,15.8S185.9,179.5,192.2,179.5z"/></g></svg>